<svg xmlns="http://www.w3.org/2000/svg" viewBox="0 0 960 720" role="img" aria-labelledby="title desc">
  <title id="title">Fresh Laundry Indonesia hero image</title>
  <desc id="desc">Laundry workspace with washing machines, folded clothes, and delivery bag.</desc>
  <defs>
    <linearGradient id="bg" x1="0" x2="1" y1="0" y2="1">
      <stop offset="0" stop-color="#e8f3ff"/>
      <stop offset="1" stop-color="#ffffff"/>
    </linearGradient>
    <linearGradient id="blue" x1="0" x2="1" y1="0" y2="1">
      <stop offset="0" stop-color="#1479ff"/>
      <stop offset="1" stop-color="#0f1f3d"/>
    </linearGradient>
  </defs>
  <rect width="960" height="720" fill="url(#bg)"/>
  <circle cx="792" cy="118" r="74" fill="#cde5ff"/>
  <circle cx="134" cy="612" r="96" fill="#d8ecff"/>
  <rect x="116" y="122" width="318" height="462" rx="34" fill="#ffffff" stroke="#b9cbe4" stroke-width="4"/>
  <rect x="526" y="150" width="270" height="402" rx="34" fill="#ffffff" stroke="#b9cbe4" stroke-width="4"/>
  <circle cx="274" cy="358" r="102" fill="#eef6ff" stroke="#1479ff" stroke-width="12"/>
  <circle cx="274" cy="358" r="62" fill="#bfe0ff"/>
  <path d="M214 350c31 32 84 32 119 2 14 44-19 78-62 78-36 0-68-29-57-80z" fill="#1479ff" opacity=".7"/>
  <rect x="158" y="166" width="232" height="58" rx="16" fill="#f4f8fc"/>
  <circle cx="346" cy="195" r="14" fill="#12b76a"/>
  <circle cx="304" cy="195" r="14" fill="#f5a524"/>
  <rect x="574" y="204" width="174" height="36" rx="12" fill="#eaf3ff"/>
  <rect x="574" y="270" width="174" height="34" rx="12" fill="#d8ecff"/>
  <rect x="574" y="334" width="174" height="34" rx="12" fill="#bfe0ff"/>
  <rect x="570" y="420" width="184" height="72" rx="18" fill="url(#blue)"/>
  <path d="M610 420v-44c0-32 24-56 56-56s56 24 56 56v44" fill="none" stroke="#0f1f3d" stroke-width="18" stroke-linecap="round"/>
  <rect x="210" y="536" width="394" height="74" rx="18" fill="#ffffff" stroke="#b9cbe4" stroke-width="4"/>
  <rect x="248" y="508" width="202" height="42" rx="14" fill="#1479ff"/>
  <rect x="462" y="508" width="104" height="42" rx="14" fill="#0f1f3d"/>
  <text x="258" y="598" fill="#0f1f3d" font-family="Arial, sans-serif" font-size="42" font-weight="700">Fresh Laundry</text>
</svg>
